<svg width="170" height="35" fill="none" xmlns="http://www.w3.org/2000/svg"><path d="M12.434 28.654c.644-2.475.423-5.17-.776-7.606L6.616 23.96c1.446 2.196 3.516 3.78 5.818 4.694zm10.256-.387l-5.883-10.191-3.88 2.24a12.408 12.408 0 01.9 8.808c2.854.761 6.057.551 8.864-.857zM10.926 19.78a11.07 11.07 0 00-6.224-4.517c-.36 2.45.002 5.078 1.182 7.428l5.042-2.911zm18.208.506a12.409 12.409 0 01-7.178-5.183l-3.88 2.24 5.884 10.191c2.623-1.726 4.406-4.395 5.174-7.248zm-16.94-1.239l3.88-2.24-5.883-10.19a12.57 12.57 0 00-5.2 7.205c2.865.764 5.471 2.594 7.204 5.226zm9.03-5.212c-1.413-2.817-1.695-5.99-.924-8.851a12.57 12.57 0 00-8.84.9l5.883 10.19 3.88-2.24zm6.31-3.644a12.563 12.563 0 00-5.842-4.737 11.071 11.071 0 00.8 7.648l5.042-2.911zm1.89 8.654c.36-2.45.022-5.035-1.157-7.385l-5.042 2.91a10.945 10.945 0 006.199 4.475zM45.098 6.317a.162.162 0 01-.052.117.14.14 0 01-.104.039h-4.251c-.043 0-.065.022-.065.065v2.015c0 .043.022.065.065.065h2.795c.043 0 .078.017.104.052.035.026.052.06.052.104v1.261a.162.162 0 01-.052.117.14.14 0 01-.104.039h-2.795c-.043 0-.065.022-.065.065v3.588a.162.162 0 01-.052.117.14.14 0 01-.104.039h-1.521a.19.19 0 01-.117-.039.19.19 0 01-.039-.117V5.056a.14.14 0 01.039-.104.162.162 0 01.117-.052h5.993c.043 0 .078.017.104.052.035.026.052.06.052.104v1.261zm4.194 7.826c-.676 0-1.274-.139-1.794-.416a3.013 3.013 0 01-1.196-1.157c-.286-.503-.43-1.079-.43-1.729V8.059c0-.641.144-1.209.43-1.703a2.926 2.926 0 011.196-1.144c.52-.277 1.118-.416 1.794-.416.684 0 1.282.139 1.794.416.52.269.923.65 1.209 1.144.286.494.429 1.062.429 1.703v2.782c0 .65-.143 1.226-.43 1.729a2.967 2.967 0 01-1.208 1.17c-.512.269-1.11.403-1.794.403zm0-1.573c.476 0 .862-.152 1.157-.455.294-.303.442-.706.442-1.209v-2.86c0-.503-.148-.906-.442-1.209-.286-.312-.672-.468-1.157-.468-.477 0-.863.156-1.157.468-.286.303-.43.706-.43 1.209v2.86c0 .503.144.906.43 1.209.294.303.68.455 1.157.455zm10.687-7.566a.204.204 0 01.182-.104h1.52c.044 0 .079.017.105.052.035.026.052.06.052.104v8.788a.162.162 0 01-.052.117.14.14 0 01-.104.039H60.16a.19.19 0 01-.117-.039.19.19 0 01-.04-.117V8.111c0-.035-.008-.052-.025-.052s-.035.013-.052.039l-1.378 2.158a.204.204 0 01-.182.104H57.6a.204.204 0 01-.182-.104L56.04 8.098c-.017-.026-.035-.035-.052-.026-.017 0-.026.017-.026.052v5.72a.162.162 0 01-.052.117.14.14 0 01-.104.039h-1.521a.19.19 0 01-.117-.039.19.19 0 01-.04-.117V5.056a.14.14 0 01.04-.104.162.162 0 01.117-.052h1.52c.079 0 .14.035.183.104l1.95 3.029c.026.052.052.052.078 0l1.963-3.029zm9.76 1.313a.162.162 0 01-.051.117.14.14 0 01-.104.039H65.32c-.043 0-.065.022-.065.065v2.015c0 .043.022.065.065.065h2.795c.043 0 .078.017.104.052.035.026.052.06.052.104v1.261a.162.162 0 01-.052.117.14.14 0 01-.104.039H65.32c-.043 0-.065.022-.065.065v2.106c0 .043.022.065.065.065h4.264c.043 0 .078.017.104.052.035.026.052.06.052.104v1.261a.162.162 0 01-.052.117.14.14 0 01-.104.039h-6.006a.19.19 0 01-.117-.039.19.19 0 01-.04-.117V5.056a.14.14 0 01.04-.104.162.162 0 01.117-.052h6.006c.043 0 .078.017.104.052.035.026.052.06.052.104v1.261zm6.5-1.261a.14.14 0 01.04-.104.162.162 0 01.117-.052h1.52c.044 0 .079.017.105.052.034.026.052.06.052.104v8.788a.162.162 0 01-.052.117.14.14 0 01-.104.039h-1.47c-.086 0-.147-.035-.181-.104l-3.367-5.564c-.018-.026-.035-.035-.052-.026-.018 0-.026.017-.026.052l.026 5.486a.162.162 0 01-.052.117.14.14 0 01-.104.039H71.17a.19.19 0 01-.117-.039.19.19 0 01-.04-.117V5.056a.14.14 0 01.04-.104.162.162 0 01.117-.052h1.469c.086 0 .147.035.182.104l3.354 5.538c.017.026.034.039.052.039.017-.009.026-.03.026-.065l-.013-5.46zm9.7-.156c.043 0 .077.017.103.052.035.026.052.06.052.104V6.33a.162.162 0 01-.052.117.14.14 0 01-.104.039h-2.327c-.043 0-.065.022-.065.065v7.293a.162.162 0 01-.052.117.14.14 0 01-.104.039h-1.52a.19.19 0 01-.118-.039.19.19 0 01-.039-.117V6.551c0-.043-.021-.065-.065-.065h-2.262a.19.19 0 01-.117-.039.19.19 0 01-.039-.117V5.056a.14.14 0 01.04-.104.162.162 0 01.116-.052h6.552zm4.083 9.1a.19.19 0 01-.117-.039.19.19 0 01-.039-.117V5.056a.14.14 0 01.04-.104.162.162 0 01.116-.052h3.25c.65 0 1.218.117 1.703.351.494.225.876.546 1.144.962.269.416.403.897.403 1.443v3.588c0 .546-.134 1.027-.403 1.443-.268.416-.65.741-1.144.975-.485.225-1.053.338-1.703.338h-3.25zm1.677-1.638c0 .043.022.065.065.065h1.573c.399 0 .72-.134.962-.403.252-.269.382-.628.39-1.079v-2.99c0-.45-.125-.81-.377-1.079-.242-.269-.572-.403-.988-.403h-1.56c-.043 0-.065.022-.065.065v5.824zm12.521-6.045a.16.16 0 01-.052.117.14.14 0 01-.104.039H99.8c-.043 0-.065.022-.065.065v2.015c0 .043.022.065.065.065h2.795c.044 0 .078.017.104.052.035.026.052.06.052.104v1.261a.16.16 0 01-.052.117.14.14 0 01-.104.039H99.8c-.043 0-.065.022-.065.065v2.106c0 .043.022.065.065.065h4.264c.044 0 .078.017.104.052.035.026.052.06.052.104v1.261a.16.16 0 01-.052.117.14.14 0 01-.104.039h-6.006a.19.19 0 01-.117-.039.19.19 0 01-.039-.117V5.056a.14.14 0 01.04-.104.161.161 0 01.116-.052h6.006c.044 0 .078.017.104.052.035.026.052.06.052.104v1.261zM105.65 14a.192.192 0 01-.117-.039.19.19 0 01-.039-.117V5.056a.14.14 0 01.039-.104.163.163 0 01.117-.052h1.521c.044 0 .078.017.104.052.035.026.052.06.052.104v7.306c0 .043.022.065.065.065h4.251c.044 0 .078.017.104.052.035.026.052.06.052.104v1.261a.16.16 0 01-.052.117.14.14 0 01-.104.039h-5.993zm15.281-4.745c-.052.026-.052.052 0 .078.823.425 1.235 1.131 1.235 2.119 0 .84-.286 1.478-.858 1.911-.572.425-1.322.637-2.249.637h-3.367a.192.192 0 01-.117-.039.19.19 0 01-.039-.117V5.056a.14.14 0 01.039-.104.163.163 0 01.117-.052h3.263c2.054 0 3.081.832 3.081 2.496 0 .867-.368 1.486-1.105 1.859zm-3.497-2.782c-.043 0-.065.022-.065.065v2.028c0 .043.022.065.065.065h1.521c.407 0 .724-.095.949-.286.225-.19.338-.45.338-.78 0-.338-.113-.602-.338-.793-.225-.2-.542-.299-.949-.299h-1.521zm1.625 5.941c.399 0 .711-.1.936-.299.225-.208.338-.49.338-.845s-.113-.633-.338-.832c-.225-.208-.542-.312-.949-.312h-1.612c-.043 0-.065.022-.065.065v2.158c0 .043.022.065.065.065h1.625zM128.888 14c-.087 0-.143-.043-.169-.13l-.39-1.274c-.018-.035-.039-.052-.065-.052h-3.198c-.026 0-.048.017-.065.052l-.377 1.274c-.026.087-.083.13-.169.13h-1.651c-.052 0-.091-.013-.117-.039-.026-.035-.031-.082-.013-.143l2.808-8.788c.026-.087.082-.13.169-.13h2.041c.086 0 .143.043.169.13l2.808 8.788a.154.154 0 01.013.065c0 .078-.048.117-.143.117h-1.651zm-3.419-2.951c-.009.052.008.078.052.078h2.288c.052 0 .069-.026.052-.078l-1.17-3.861c-.009-.035-.022-.048-.039-.039-.018 0-.031.013-.039.039l-1.144 3.861zm1.846-7.137c.017.035.026.06.026.078 0 .07-.044.104-.13.104h-1.092a.203.203 0 01-.182-.104l-.923-1.313a.155.155 0 01-.026-.091c0-.07.043-.104.13-.104h1.313c.086 0 .151.039.195.117l.689 1.313zm7.058 10.192c-.693 0-1.3-.108-1.82-.325-.52-.225-.923-.542-1.209-.949a2.543 2.543 0 01-.416-1.443v-.286a.14.14 0 01.039-.104.163.163 0 01.117-.052h1.482c.043 0 .078.017.104.052.035.026.052.06.052.104v.195c0 .347.16.641.481.884.321.234.754.351 1.3.351.459 0 .802-.095 1.027-.286a.938.938 0 00.338-.728.704.704 0 00-.208-.52 1.685 1.685 0 00-.572-.377 13.944 13.944 0 00-1.131-.455 11.57 11.57 0 01-1.482-.611 3.072 3.072 0 01-1.014-.845c-.269-.364-.403-.81-.403-1.339 0-.52.134-.975.403-1.365s.641-.689 1.118-.897c.477-.208 1.027-.312 1.651-.312.659 0 1.244.117 1.755.351.52.234.923.563 1.209.988.295.416.442.901.442 1.456v.195a.16.16 0 01-.052.117.141.141 0 01-.104.039h-1.495a.192.192 0 01-.117-.039.19.19 0 01-.039-.117v-.104c0-.364-.152-.672-.455-.923-.295-.26-.702-.39-1.222-.39-.407 0-.728.087-.962.26a.853.853 0 00-.338.715c0 .217.065.399.195.546.139.147.338.282.598.403.269.113.68.269 1.235.468a14.67 14.67 0 011.443.598c.355.173.672.433.949.78.286.338.429.78.429 1.326 0 .815-.299 1.46-.897 1.937-.598.468-1.408.702-2.431.702zm7.666-9.308c.659 0 1.24.134 1.742.403.503.269.893.65 1.17 1.144.278.494.416 1.066.416 1.716v2.912c0 .771-.208 1.426-.624 1.963-.416.529-.988.88-1.716 1.053-.034.009-.052.03-.052.065v1.066a.123.123 0 01-.052.104.123.123 0 01-.104.052h-1.521a.163.163 0 01-.117-.052.14.14 0 01-.039-.104v-1.053c0-.035-.017-.056-.052-.065-.728-.173-1.304-.529-1.729-1.066-.424-.537-.637-1.192-.637-1.963V8.059c0-.65.139-1.218.416-1.703a2.869 2.869 0 011.17-1.144c.503-.277 1.079-.416 1.729-.416zm1.495 3.172c0-.477-.138-.862-.416-1.157-.268-.295-.628-.442-1.079-.442-.442 0-.801.147-1.079.442-.268.295-.403.68-.403 1.157v2.964c0 .477.135.862.403 1.157.278.295.637.442 1.079.442.451 0 .811-.147 1.079-.442.278-.295.416-.68.416-1.157V7.968zm6.458 6.136c-.667 0-1.256-.13-1.768-.39a2.942 2.942 0 01-1.183-1.092c-.277-.477-.416-1.023-.416-1.638V5.056a.14.14 0 01.039-.104.163.163 0 01.117-.052h1.521c.044 0 .078.017.104.052.035.026.052.06.052.104v5.941c0 .46.139.832.416 1.118.286.277.659.416 1.118.416.46 0 .828-.139 1.105-.416.286-.286.429-.659.429-1.118V5.056a.14.14 0 01.039-.104.163.163 0 01.117-.052h1.521c.044 0 .078.017.104.052.035.026.052.06.052.104v5.928c0 .615-.143 1.161-.429 1.638a2.825 2.825 0 01-1.183 1.092c-.502.26-1.087.39-1.755.39zm11.192-7.787a.16.16 0 01-.052.117.14.14 0 01-.104.039h-4.264c-.043 0-.065.022-.065.065v2.015c0 .043.022.065.065.065h2.795c.044 0 .078.017.104.052.035.026.052.06.052.104v1.261a.16.16 0 01-.052.117.14.14 0 01-.104.039h-2.795c-.043 0-.065.022-.065.065v2.106c0 .043.022.065.065.065h4.264c.044 0 .078.017.104.052.035.026.052.06.052.104v1.261a.16.16 0 01-.052.117.14.14 0 01-.104.039h-6.006a.192.192 0 01-.117-.039.19.19 0 01-.039-.117V5.056a.14.14 0 01.039-.104.163.163 0 01.117-.052h6.006c.044 0 .078.017.104.052.035.026.052.06.052.104v1.261zm7.553-1.417c.043 0 .078.017.104.052.035.026.052.06.052.104V6.33a.16.16 0 01-.052.117.141.141 0 01-.104.039h-2.327c-.043 0-.065.022-.065.065v7.293a.16.16 0 01-.052.117.141.141 0 01-.104.039h-1.521a.192.192 0 01-.117-.039.19.19 0 01-.039-.117V6.551c0-.043-.022-.065-.065-.065h-2.262a.192.192 0 01-.117-.039.19.19 0 01-.039-.117V5.056a.14.14 0 01.039-.104.163.163 0 01.117-.052h6.552zM45.098 21.576c0 .087-.043.13-.13.13h-4.771c-.035 0-.052.017-.052.052v3.211c0 .035.017.052.052.052h3.341c.087 0 .13.043.13.13v.546c0 .087-.043.13-.13.13h-3.341c-.035 0-.052.017-.052.052v3.991c0 .087-.043.13-.13.13h-.663c-.087 0-.13-.043-.13-.13v-8.84c0-.087.043-.13.13-.13h5.616c.087 0 .13.043.13.13v.546zm4.503 8.528c-.607 0-1.144-.121-1.612-.364a2.685 2.685 0 01-1.092-1.014c-.26-.442-.39-.953-.39-1.534V21.03c0-.087.043-.13.13-.13h.663c.086 0 .13.043.13.13v6.188c0 .615.199 1.118.598 1.508.398.381.923.572 1.573.572.65 0 1.174-.19 1.573-.572.398-.39.598-.893.598-1.508V21.03c0-.087.043-.13.13-.13h.663c.086 0 .13.043.13.13v6.162c0 .58-.13 1.092-.39 1.534a2.598 2.598 0 01-1.08 1.014c-.467.243-1.009.364-1.624.364zm10.86-9.074c0-.087.044-.13.13-.13h.663c.087 0 .13.043.13.13v8.84c0 .087-.043.13-.13.13h-.65c-.06 0-.112-.03-.156-.091l-4.433-7.215c-.008-.026-.021-.035-.039-.026-.017 0-.026.013-.026.039l.013 7.163c0 .087-.043.13-.13.13h-.663c-.086 0-.13-.043-.13-.13v-8.84c0-.087.044-.13.13-.13h.65c.061 0 .113.03.156.091l4.433 7.215c.009.026.022.039.04.039.017-.009.025-.026.025-.052l-.013-7.163zM63.778 30c-.087 0-.13-.043-.13-.13v-8.84c0-.087.043-.13.13-.13h3.068c.858 0 1.538.225 2.04.676.512.45.768 1.062.768 1.833v4.082c0 .771-.256 1.382-.767 1.833-.503.45-1.183.676-2.041.676h-3.068zm.793-.858c0 .035.017.052.052.052h2.262c.563 0 1.01-.165 1.339-.494.338-.33.507-.771.507-1.326v-3.835c0-.563-.165-1.01-.494-1.339-.33-.33-.78-.494-1.352-.494h-2.262c-.035 0-.052.017-.052.052v7.384zM76.774 30c-.078 0-.13-.035-.156-.104l-.52-1.638c-.008-.026-.026-.039-.052-.039H72.16c-.026 0-.043.013-.052.039l-.52 1.638c-.026.07-.078.104-.156.104h-.702c-.095 0-.13-.048-.104-.143l2.873-8.853c.026-.07.078-.104.156-.104h.884c.078 0 .13.035.156.104l2.886 8.853.013.052c0 .06-.039.091-.117.091h-.702zm-4.407-2.6a.056.056 0 000 .052.115.115 0 00.052.013h3.354c.018 0 .03-.004.04-.013.017-.017.02-.035.012-.052l-1.69-5.304c-.008-.017-.021-.026-.039-.026-.017 0-.03.009-.039.026l-1.69 5.304zm9.525 2.717c-.606 0-1.14-.117-1.599-.351a2.705 2.705 0 01-1.079-1.014c-.251-.442-.377-.949-.377-1.521v-3.575c0-.563.126-1.062.377-1.495.26-.433.62-.767 1.08-1.001.459-.243.992-.364 1.598-.364.607 0 1.14.117 1.6.351.459.234.814.563 1.065.988.26.425.39.914.39 1.469a.14.14 0 01-.039.104.125.125 0 01-.09.039l-.664.039c-.086 0-.13-.039-.13-.117v-.039c0-.615-.195-1.105-.585-1.469-.39-.373-.905-.559-1.547-.559-.641 0-1.157.186-1.547.559-.39.373-.585.862-.585 1.469v3.64c0 .607.195 1.096.585 1.469.39.373.906.559 1.547.559.642 0 1.157-.182 1.547-.546.39-.373.585-.867.585-1.482v-.026c0-.078.044-.117.13-.117l.663.039c.087 0 .13.039.13.117 0 .563-.13 1.062-.39 1.495a2.557 2.557 0 01-1.066.988c-.459.234-.992.351-1.599.351zM87.15 30c-.087 0-.13-.043-.13-.13v-8.84c0-.087.043-.13.13-.13h.663c.087 0 .13.043.13.13v8.84c0 .087-.043.13-.13.13h-.663zm6.042.104c-.615 0-1.157-.126-1.625-.377a2.718 2.718 0 01-1.092-1.053c-.251-.46-.377-.988-.377-1.586v-3.276c0-.598.126-1.122.377-1.573.26-.46.624-.815 1.092-1.066.468-.251 1.01-.377 1.625-.377s1.157.126 1.625.377c.477.251.84.607 1.092 1.066.26.45.39.975.39 1.573v3.276c0 .598-.13 1.127-.39 1.586-.251.45-.615.802-1.092 1.053-.468.251-1.01.377-1.625.377zm0-.793c.659 0 1.187-.2 1.586-.598.399-.399.598-.927.598-1.586v-3.328c0-.659-.2-1.187-.598-1.586-.399-.407-.927-.611-1.586-.611-.65 0-1.174.204-1.573.611-.399.399-.598.927-.598 1.586v3.328c0 .659.2 1.187.598 1.586.399.399.923.598 1.573.598zm-.429-9.269c-.052 0-.087-.013-.104-.039-.017-.035-.013-.074.013-.117l.78-1.417c.026-.06.078-.091.156-.091h.585c.052 0 .082.017.091.052.017.026.013.06-.013.104l-.884 1.417c-.043.06-.095.091-.156.091h-.468zm11.769.845c.762 0 1.373.234 1.833.702.468.468.702 1.083.702 1.846 0 .754-.239 1.36-.715 1.82-.468.46-1.088.689-1.859.689h-2.535c-.035 0-.052.017-.052.052v3.874c0 .087-.044.13-.13.13h-.663c-.087 0-.13-.043-.13-.13v-8.853c0-.087.043-.13.13-.13h3.419zm-.104 4.29c.511 0 .927-.156 1.248-.468.32-.32.481-.741.481-1.261 0-.529-.161-.953-.481-1.274-.321-.32-.737-.481-1.248-.481h-2.47c-.035 0-.052.017-.052.052v3.38c0 .035.017.052.052.052h2.47zM114.071 30c-.078 0-.13-.03-.156-.091l-1.911-4.03c-.009-.026-.026-.039-.052-.039h-2.21c-.035 0-.052.017-.052.052v3.978c0 .087-.043.13-.13.13h-.663c-.087 0-.13-.043-.13-.13v-8.84c0-.087.043-.13.13-.13h3.367c.745 0 1.348.234 1.807.702.459.46.689 1.062.689 1.807 0 .607-.165 1.122-.494 1.547-.329.425-.776.698-1.339.819-.035.017-.043.039-.026.065l1.95 4.004a.14.14 0 01.013.065c0 .06-.035.091-.104.091h-.689zm-4.329-8.294c-.035 0-.052.017-.052.052v3.289c0 .035.017.052.052.052h2.418c.503 0 .91-.156 1.222-.468.312-.312.468-.72.468-1.222 0-.503-.156-.91-.468-1.222-.312-.32-.719-.481-1.222-.481h-2.418zM116.857 30c-.087 0-.13-.043-.13-.13v-8.84c0-.087.043-.13.13-.13h.663c.087 0 .13.043.13.13v8.84c0 .087-.043.13-.13.13h-.663zm5.47 0c-.078 0-.13-.035-.156-.104l-2.834-8.853-.013-.052c0-.06.039-.091.117-.091h.702c.078 0 .13.035.156.104l2.366 7.618c.009.017.022.026.039.026s.03-.009.039-.026l2.366-7.618c.026-.07.078-.104.156-.104h.689c.095 0 .13.048.104.143l-2.86 8.853c-.026.07-.078.104-.156.104h-.715zm9.608 0c-.078 0-.13-.035-.156-.104l-.52-1.638c-.008-.026-.026-.039-.052-.039h-3.887c-.026 0-.043.013-.052.039l-.52 1.638c-.026.07-.078.104-.156.104h-.702c-.095 0-.13-.048-.104-.143l2.873-8.853c.026-.07.078-.104.156-.104h.884c.078 0 .13.035.156.104l2.886 8.853.013.052c0 .06-.039.091-.117.091h-.702zm-4.407-2.6a.06.06 0 000 .052.118.118 0 00.052.013h3.354c.018 0 .031-.004.039-.013.018-.017.022-.035.013-.052l-1.69-5.304c-.008-.017-.021-.026-.039-.026-.017 0-.03.009-.039.026l-1.69 5.304zm7.039 2.6c-.087 0-.13-.043-.13-.13v-8.84c0-.087.043-.13.13-.13h3.068c.858 0 1.538.225 2.041.676.511.45.767 1.062.767 1.833v4.082c0 .771-.256 1.382-.767 1.833-.503.45-1.183.676-2.041.676h-3.068zm.793-.858c0 .035.017.052.052.052h2.262c.563 0 1.01-.165 1.339-.494.338-.33.507-.771.507-1.326v-3.835c0-.563-.165-1.01-.494-1.339-.329-.33-.78-.494-1.352-.494h-2.262c-.035 0-.052.017-.052.052v7.384zm12.203.858c-.078 0-.13-.035-.156-.104l-.52-1.638c-.008-.026-.026-.039-.052-.039h-3.887c-.026 0-.043.013-.052.039l-.52 1.638c-.026.07-.078.104-.156.104h-.702c-.095 0-.13-.048-.104-.143l2.873-8.853c.026-.07.078-.104.156-.104h.884c.078 0 .13.035.156.104l2.886 8.853.013.052c0 .06-.039.091-.117.091h-.702zm-4.407-2.6a.06.06 0 000 .052.118.118 0 00.052.013h3.354c.018 0 .031-.004.039-.013.018-.017.022-.035.013-.052l-1.69-5.304c-.008-.017-.021-.026-.039-.026-.017 0-.03.009-.039.026l-1.69 5.304z" fill="#1E88E5"/></svg>