<svg width="170" height="35" viewBox="0 0 170 35" fill="none" xmlns="http://www.w3.org/2000/svg">
<path d="M12.4337 28.6544C13.0783 26.1793 12.8571 23.4844 11.6584 21.0484L6.61615 23.9596C8.06202 26.1561 10.1318 27.7409 12.4337 28.6544Z" fill="white"/>
<path d="M22.6909 28.2668L16.8071 18.0758L12.9269 20.3161C14.3401 23.1324 14.5972 26.2624 13.8266 29.1243C16.6807 29.8854 19.8842 29.6752 22.6909 28.2668Z" fill="white"/>
<path d="M10.926 19.7799C9.41577 17.5238 7.16803 15.9426 4.70225 15.2632C4.34248 17.7135 4.70442 20.3406 5.8838 22.691L10.926 19.7799Z" fill="white"/>
<path d="M29.1345 20.2864C26.2707 19.5228 23.6886 17.7352 21.9561 15.1032L18.0759 17.3434L23.9597 27.5344C26.5827 25.8079 28.3665 23.1387 29.1345 20.2864Z" fill="white"/>
<path d="M12.1945 19.0475L16.0747 16.8073L10.1909 6.61623C7.56792 8.34279 5.75972 10.9697 4.99174 13.8219C7.85552 14.5856 10.462 16.4155 12.1945 19.0475Z" fill="white"/>
<path d="M21.2237 13.8346C19.8106 11.0182 19.529 7.84595 20.2996 4.98403C17.4455 4.223 14.2664 4.47546 11.4597 5.88381L17.3435 16.0748L21.2237 13.8346Z" fill="white"/>
<path d="M27.5344 10.191C26.0886 7.99444 23.9944 6.36744 21.6924 5.45389C21.0479 7.929 21.2935 10.6662 22.4922 13.1022L27.5344 10.191Z" fill="white"/>
<path d="M29.424 18.8452C29.7837 16.3949 29.4462 13.8101 28.2668 11.4596L23.2246 14.3708C24.7348 16.6268 26.9582 18.1659 29.424 18.8452Z" fill="white"/>
<path d="M45.098 6.317C45.098 6.36033 45.0807 6.39933 45.046 6.434C45.02 6.46 44.9853 6.473 44.942 6.473H40.691C40.6477 6.473 40.626 6.49467 40.626 6.538V8.553C40.626 8.59633 40.6477 8.618 40.691 8.618H43.486C43.5293 8.618 43.564 8.63533 43.59 8.67C43.6247 8.696 43.642 8.73067 43.642 8.774V10.035C43.642 10.0783 43.6247 10.1173 43.59 10.152C43.564 10.178 43.5293 10.191 43.486 10.191H40.691C40.6477 10.191 40.626 10.2127 40.626 10.256V13.844C40.626 13.8873 40.6087 13.9263 40.574 13.961C40.548 13.987 40.5133 14 40.47 14H38.949C38.9057 14 38.8667 13.987 38.832 13.961C38.806 13.9263 38.793 13.8873 38.793 13.844V5.056C38.793 5.01267 38.806 4.978 38.832 4.952C38.8667 4.91733 38.9057 4.9 38.949 4.9H44.942C44.9853 4.9 45.02 4.91733 45.046 4.952C45.0807 4.978 45.098 5.01267 45.098 5.056V6.317ZM49.2917 14.143C48.6157 14.143 48.0177 14.0043 47.4977 13.727C46.9864 13.4497 46.5877 13.064 46.3017 12.57C46.0157 12.0673 45.8727 11.491 45.8727 10.841V8.059C45.8727 7.41767 46.0157 6.85 46.3017 6.356C46.5877 5.862 46.9864 5.48067 47.4977 5.212C48.0177 4.93467 48.6157 4.796 49.2917 4.796C49.9764 4.796 50.5744 4.93467 51.0857 5.212C51.6057 5.48067 52.0087 5.862 52.2947 6.356C52.5807 6.85 52.7237 7.41767 52.7237 8.059V10.841C52.7237 11.491 52.5807 12.0673 52.2947 12.57C52.0087 13.0727 51.6057 13.4627 51.0857 13.74C50.5744 14.0087 49.9764 14.143 49.2917 14.143ZM49.2917 12.57C49.7684 12.57 50.1541 12.4183 50.4487 12.115C50.7434 11.8117 50.8907 11.4087 50.8907 10.906V8.046C50.8907 7.54333 50.7434 7.14033 50.4487 6.837C50.1627 6.525 49.7771 6.369 49.2917 6.369C48.8151 6.369 48.4294 6.525 48.1347 6.837C47.8487 7.14033 47.7057 7.54333 47.7057 8.046V10.906C47.7057 11.4087 47.8487 11.8117 48.1347 12.115C48.4294 12.4183 48.8151 12.57 49.2917 12.57ZM59.9789 5.004C60.0223 4.93467 60.0829 4.9 60.1609 4.9H61.6819C61.7253 4.9 61.7599 4.91733 61.7859 4.952C61.8206 4.978 61.8379 5.01267 61.8379 5.056V13.844C61.8379 13.8873 61.8206 13.9263 61.7859 13.961C61.7599 13.987 61.7253 14 61.6819 14H60.1609C60.1176 14 60.0786 13.987 60.0439 13.961C60.0179 13.9263 60.0049 13.8873 60.0049 13.844V8.111C60.0049 8.07633 59.9963 8.059 59.9789 8.059C59.9616 8.059 59.9443 8.072 59.9269 8.098L58.5489 10.256C58.5056 10.3253 58.4449 10.36 58.3669 10.36H57.5999C57.5219 10.36 57.4613 10.3253 57.4179 10.256L56.0399 8.098C56.0226 8.072 56.0053 8.06333 55.9879 8.072C55.9706 8.072 55.9619 8.08933 55.9619 8.124V13.844C55.9619 13.8873 55.9446 13.9263 55.9099 13.961C55.8839 13.987 55.8493 14 55.8059 14H54.2849C54.2416 14 54.2026 13.987 54.1679 13.961C54.1419 13.9263 54.1289 13.8873 54.1289 13.844V5.056C54.1289 5.01267 54.1419 4.978 54.1679 4.952C54.2026 4.91733 54.2416 4.9 54.2849 4.9H55.8059C55.8839 4.9 55.9446 4.93467 55.9879 5.004L57.9379 8.033C57.9639 8.085 57.9899 8.085 58.0159 8.033L59.9789 5.004ZM69.7399 6.317C69.7399 6.36033 69.7226 6.39933 69.6879 6.434C69.6619 6.46 69.6272 6.473 69.5839 6.473H65.3199C65.2766 6.473 65.2549 6.49467 65.2549 6.538V8.553C65.2549 8.59633 65.2766 8.618 65.3199 8.618H68.1149C68.1582 8.618 68.1929 8.63533 68.2189 8.67C68.2536 8.696 68.2709 8.73067 68.2709 8.774V10.035C68.2709 10.0783 68.2536 10.1173 68.2189 10.152C68.1929 10.178 68.1582 10.191 68.1149 10.191H65.3199C65.2766 10.191 65.2549 10.2127 65.2549 10.256V12.362C65.2549 12.4053 65.2766 12.427 65.3199 12.427H69.5839C69.6272 12.427 69.6619 12.4443 69.6879 12.479C69.7226 12.505 69.7399 12.5397 69.7399 12.583V13.844C69.7399 13.8873 69.7226 13.9263 69.6879 13.961C69.6619 13.987 69.6272 14 69.5839 14H63.5779C63.5346 14 63.4956 13.987 63.4609 13.961C63.4349 13.9263 63.4219 13.8873 63.4219 13.844V5.056C63.4219 5.01267 63.4349 4.978 63.4609 4.952C63.4956 4.91733 63.5346 4.9 63.5779 4.9H69.5839C69.6272 4.9 69.6619 4.91733 69.6879 4.952C69.7226 4.978 69.7399 5.01267 69.7399 5.056V6.317ZM76.2397 5.056C76.2397 5.01267 76.2527 4.978 76.2787 4.952C76.3134 4.91733 76.3524 4.9 76.3957 4.9H77.9167C77.96 4.9 77.9947 4.91733 78.0207 4.952C78.0554 4.978 78.0727 5.01267 78.0727 5.056V13.844C78.0727 13.8873 78.0554 13.9263 78.0207 13.961C77.9947 13.987 77.96 14 77.9167 14H76.4477C76.361 14 76.3004 13.9653 76.2657 13.896L72.8987 8.332C72.8814 8.306 72.864 8.29733 72.8467 8.306C72.8294 8.306 72.8207 8.32333 72.8207 8.358L72.8467 13.844C72.8467 13.8873 72.8294 13.9263 72.7947 13.961C72.7687 13.987 72.734 14 72.6907 14H71.1697C71.1264 14 71.0874 13.987 71.0527 13.961C71.0267 13.9263 71.0137 13.8873 71.0137 13.844V5.056C71.0137 5.01267 71.0267 4.978 71.0527 4.952C71.0874 4.91733 71.1264 4.9 71.1697 4.9H72.6387C72.7254 4.9 72.786 4.93467 72.8207 5.004L76.1747 10.542C76.192 10.568 76.2094 10.581 76.2267 10.581C76.244 10.5723 76.2527 10.5507 76.2527 10.516L76.2397 5.056ZM85.9382 4.9C85.9815 4.9 86.0162 4.91733 86.0422 4.952C86.0769 4.978 86.0942 5.01267 86.0942 5.056V6.33C86.0942 6.37333 86.0769 6.41233 86.0422 6.447C86.0162 6.473 85.9815 6.486 85.9382 6.486H83.6112C83.5679 6.486 83.5462 6.50767 83.5462 6.551V13.844C83.5462 13.8873 83.5289 13.9263 83.4942 13.961C83.4682 13.987 83.4335 14 83.3902 14H81.8692C81.8259 14 81.7869 13.987 81.7522 13.961C81.7262 13.9263 81.7132 13.8873 81.7132 13.844V6.551C81.7132 6.50767 81.6915 6.486 81.6482 6.486H79.3862C79.3429 6.486 79.3039 6.473 79.2692 6.447C79.2432 6.41233 79.2302 6.37333 79.2302 6.33V5.056C79.2302 5.01267 79.2432 4.978 79.2692 4.952C79.3039 4.91733 79.3429 4.9 79.3862 4.9H85.9382ZM90.0222 14C89.9789 14 89.9399 13.987 89.9052 13.961C89.8792 13.9263 89.8662 13.8873 89.8662 13.844V5.056C89.8662 5.01267 89.8792 4.978 89.9052 4.952C89.9399 4.91733 89.9789 4.9 90.0222 4.9H93.2722C93.9222 4.9 94.4899 5.017 94.9752 5.251C95.4692 5.47633 95.8506 5.797 96.1192 6.213C96.3879 6.629 96.5222 7.11 96.5222 7.656V11.244C96.5222 11.79 96.3879 12.271 96.1192 12.687C95.8506 13.103 95.4692 13.428 94.9752 13.662C94.4899 13.8873 93.9222 14 93.2722 14H90.0222ZM91.6992 12.362C91.6992 12.4053 91.7209 12.427 91.7642 12.427H93.3372C93.7359 12.427 94.0566 12.2927 94.2992 12.024C94.5506 11.7553 94.6806 11.3957 94.6892 10.945V7.955C94.6892 7.50433 94.5636 7.14467 94.3122 6.876C94.0696 6.60733 93.7402 6.473 93.3242 6.473H91.7642C91.7209 6.473 91.6992 6.49467 91.6992 6.538V12.362ZM104.22 6.317C104.22 6.36033 104.203 6.39933 104.168 6.434C104.142 6.46 104.108 6.473 104.064 6.473H99.8004C99.757 6.473 99.7354 6.49467 99.7354 6.538V8.553C99.7354 8.59633 99.757 8.618 99.8004 8.618H102.595C102.639 8.618 102.673 8.63533 102.699 8.67C102.734 8.696 102.751 8.73067 102.751 8.774V10.035C102.751 10.0783 102.734 10.1173 102.699 10.152C102.673 10.178 102.639 10.191 102.595 10.191H99.8004C99.757 10.191 99.7354 10.2127 99.7354 10.256V12.362C99.7354 12.4053 99.757 12.427 99.8004 12.427H104.064C104.108 12.427 104.142 12.4443 104.168 12.479C104.203 12.505 104.22 12.5397 104.22 12.583V13.844C104.22 13.8873 104.203 13.9263 104.168 13.961C104.142 13.987 104.108 14 104.064 14H98.0584C98.015 14 97.976 13.987 97.9414 13.961C97.9154 13.9263 97.9024 13.8873 97.9024 13.844V5.056C97.9024 5.01267 97.9154 4.978 97.9414 4.952C97.976 4.91733 98.015 4.9 98.0584 4.9H104.064C104.108 4.9 104.142 4.91733 104.168 4.952C104.203 4.978 104.22 5.01267 104.22 5.056V6.317ZM105.65 14C105.607 14 105.568 13.987 105.533 13.961C105.507 13.9263 105.494 13.8873 105.494 13.844V5.056C105.494 5.01267 105.507 4.978 105.533 4.952C105.568 4.91733 105.607 4.9 105.65 4.9H107.171C107.215 4.9 107.249 4.91733 107.275 4.952C107.31 4.978 107.327 5.01267 107.327 5.056V12.362C107.327 12.4053 107.349 12.427 107.392 12.427H111.643C111.687 12.427 111.721 12.4443 111.747 12.479C111.782 12.505 111.799 12.5397 111.799 12.583V13.844C111.799 13.8873 111.782 13.9263 111.747 13.961C111.721 13.987 111.687 14 111.643 14H105.65ZM120.931 9.255C120.879 9.281 120.879 9.307 120.931 9.333C121.754 9.75767 122.166 10.464 122.166 11.452C122.166 12.2927 121.88 12.9297 121.308 13.363C120.736 13.7877 119.986 14 119.059 14H115.692C115.649 14 115.61 13.987 115.575 13.961C115.549 13.9263 115.536 13.8873 115.536 13.844V5.056C115.536 5.01267 115.549 4.978 115.575 4.952C115.61 4.91733 115.649 4.9 115.692 4.9H118.955C121.009 4.9 122.036 5.732 122.036 7.396C122.036 8.26267 121.668 8.88233 120.931 9.255ZM117.434 6.473C117.391 6.473 117.369 6.49467 117.369 6.538V8.566C117.369 8.60933 117.391 8.631 117.434 8.631H118.955C119.362 8.631 119.679 8.53567 119.904 8.345C120.129 8.15433 120.242 7.89433 120.242 7.565C120.242 7.227 120.129 6.96267 119.904 6.772C119.679 6.57267 119.362 6.473 118.955 6.473H117.434ZM119.059 12.414C119.458 12.414 119.77 12.3143 119.995 12.115C120.22 11.907 120.333 11.6253 120.333 11.27C120.333 10.9147 120.22 10.6373 119.995 10.438C119.77 10.23 119.453 10.126 119.046 10.126H117.434C117.391 10.126 117.369 10.1477 117.369 10.191V12.349C117.369 12.3923 117.391 12.414 117.434 12.414H119.059ZM128.888 14C128.801 14 128.745 13.9567 128.719 13.87L128.329 12.596C128.311 12.5613 128.29 12.544 128.264 12.544H125.066C125.04 12.544 125.018 12.5613 125.001 12.596L124.624 13.87C124.598 13.9567 124.541 14 124.455 14H122.804C122.752 14 122.713 13.987 122.687 13.961C122.661 13.9263 122.656 13.8787 122.674 13.818L125.482 5.03C125.508 4.94333 125.564 4.9 125.651 4.9H127.692C127.778 4.9 127.835 4.94333 127.861 5.03L130.669 13.818C130.677 13.8353 130.682 13.857 130.682 13.883C130.682 13.961 130.634 14 130.539 14H128.888ZM125.469 11.049C125.46 11.101 125.477 11.127 125.521 11.127H127.809C127.861 11.127 127.878 11.101 127.861 11.049L126.691 7.188C126.682 7.15333 126.669 7.14033 126.652 7.149C126.634 7.149 126.621 7.162 126.613 7.188L125.469 11.049ZM127.315 3.912C127.332 3.94667 127.341 3.97267 127.341 3.99C127.341 4.05933 127.297 4.094 127.211 4.094H126.119C126.041 4.094 125.98 4.05933 125.937 3.99L125.014 2.677C124.996 2.651 124.988 2.62067 124.988 2.586C124.988 2.51667 125.031 2.482 125.118 2.482H126.431C126.517 2.482 126.582 2.521 126.626 2.599L127.315 3.912ZM134.373 14.104C133.68 14.104 133.073 13.9957 132.553 13.779C132.033 13.5537 131.63 13.2373 131.344 12.83C131.067 12.414 130.928 11.933 130.928 11.387V11.101C130.928 11.0577 130.941 11.023 130.967 10.997C131.002 10.9623 131.041 10.945 131.084 10.945H132.566C132.609 10.945 132.644 10.9623 132.67 10.997C132.705 11.023 132.722 11.0577 132.722 11.101V11.296C132.722 11.6427 132.882 11.9373 133.203 12.18C133.524 12.414 133.957 12.531 134.503 12.531C134.962 12.531 135.305 12.4357 135.53 12.245C135.755 12.0457 135.868 11.803 135.868 11.517C135.868 11.309 135.799 11.1357 135.66 10.997C135.521 10.8497 135.331 10.724 135.088 10.62C134.854 10.5073 134.477 10.3557 133.957 10.165C133.376 9.96567 132.882 9.762 132.475 9.554C132.076 9.346 131.738 9.06433 131.461 8.709C131.192 8.345 131.058 7.89867 131.058 7.37C131.058 6.85 131.192 6.395 131.461 6.005C131.73 5.615 132.102 5.316 132.579 5.108C133.056 4.9 133.606 4.796 134.23 4.796C134.889 4.796 135.474 4.913 135.985 5.147C136.505 5.381 136.908 5.71033 137.194 6.135C137.489 6.551 137.636 7.03633 137.636 7.591V7.786C137.636 7.82933 137.619 7.86833 137.584 7.903C137.558 7.929 137.523 7.942 137.48 7.942H135.985C135.942 7.942 135.903 7.929 135.868 7.903C135.842 7.86833 135.829 7.82933 135.829 7.786V7.682C135.829 7.318 135.677 7.01033 135.374 6.759C135.079 6.499 134.672 6.369 134.152 6.369C133.745 6.369 133.424 6.45567 133.19 6.629C132.965 6.80233 132.852 7.04067 132.852 7.344C132.852 7.56067 132.917 7.74267 133.047 7.89C133.186 8.03733 133.385 8.17167 133.645 8.293C133.914 8.40567 134.325 8.56167 134.88 8.761C135.495 8.98633 135.976 9.18567 136.323 9.359C136.678 9.53233 136.995 9.79233 137.272 10.139C137.558 10.477 137.701 10.919 137.701 11.465C137.701 12.2797 137.402 12.9253 136.804 13.402C136.206 13.87 135.396 14.104 134.373 14.104ZM142.039 4.796C142.698 4.796 143.279 4.93033 143.781 5.199C144.284 5.46767 144.674 5.849 144.951 6.343C145.229 6.837 145.367 7.409 145.367 8.059V10.971C145.367 11.7423 145.159 12.3967 144.743 12.934C144.327 13.4627 143.755 13.8137 143.027 13.987C142.993 13.9957 142.975 14.0173 142.975 14.052V15.118C142.975 15.1613 142.958 15.196 142.923 15.222C142.897 15.2567 142.863 15.274 142.819 15.274H141.298C141.255 15.274 141.216 15.2567 141.181 15.222C141.155 15.196 141.142 15.1613 141.142 15.118V14.065C141.142 14.0303 141.125 14.0087 141.09 14C140.362 13.8267 139.786 13.4713 139.361 12.934C138.937 12.3967 138.724 11.7423 138.724 10.971V8.059C138.724 7.409 138.863 6.84133 139.14 6.356C139.418 5.862 139.808 5.48067 140.31 5.212C140.813 4.93467 141.389 4.796 142.039 4.796ZM143.534 7.968C143.534 7.49133 143.396 7.10567 143.118 6.811C142.85 6.51633 142.49 6.369 142.039 6.369C141.597 6.369 141.238 6.51633 140.96 6.811C140.692 7.10567 140.557 7.49133 140.557 7.968V10.932C140.557 11.4087 140.692 11.7943 140.96 12.089C141.238 12.3837 141.597 12.531 142.039 12.531C142.49 12.531 142.85 12.3837 143.118 12.089C143.396 11.7943 143.534 11.4087 143.534 10.932V7.968ZM149.992 14.104C149.325 14.104 148.736 13.974 148.224 13.714C147.722 13.454 147.327 13.09 147.041 12.622C146.764 12.1453 146.625 11.5993 146.625 10.984V5.056C146.625 5.01267 146.638 4.978 146.664 4.952C146.699 4.91733 146.738 4.9 146.781 4.9H148.302C148.346 4.9 148.38 4.91733 148.406 4.952C148.441 4.978 148.458 5.01267 148.458 5.056V10.997C148.458 11.4563 148.597 11.829 148.874 12.115C149.16 12.3923 149.533 12.531 149.992 12.531C150.452 12.531 150.82 12.3923 151.097 12.115C151.383 11.829 151.526 11.4563 151.526 10.997V5.056C151.526 5.01267 151.539 4.978 151.565 4.952C151.6 4.91733 151.639 4.9 151.682 4.9H153.203C153.247 4.9 153.281 4.91733 153.307 4.952C153.342 4.978 153.359 5.01267 153.359 5.056V10.984C153.359 11.5993 153.216 12.1453 152.93 12.622C152.653 13.09 152.259 13.454 151.747 13.714C151.245 13.974 150.66 14.104 149.992 14.104ZM161.184 6.317C161.184 6.36033 161.167 6.39933 161.132 6.434C161.106 6.46 161.072 6.473 161.028 6.473H156.764C156.721 6.473 156.699 6.49467 156.699 6.538V8.553C156.699 8.59633 156.721 8.618 156.764 8.618H159.559C159.603 8.618 159.637 8.63533 159.663 8.67C159.698 8.696 159.715 8.73067 159.715 8.774V10.035C159.715 10.0783 159.698 10.1173 159.663 10.152C159.637 10.178 159.603 10.191 159.559 10.191H156.764C156.721 10.191 156.699 10.2127 156.699 10.256V12.362C156.699 12.4053 156.721 12.427 156.764 12.427H161.028C161.072 12.427 161.106 12.4443 161.132 12.479C161.167 12.505 161.184 12.5397 161.184 12.583V13.844C161.184 13.8873 161.167 13.9263 161.132 13.961C161.106 13.987 161.072 14 161.028 14H155.022C154.979 14 154.94 13.987 154.905 13.961C154.879 13.9263 154.866 13.8873 154.866 13.844V5.056C154.866 5.01267 154.879 4.978 154.905 4.952C154.94 4.91733 154.979 4.9 155.022 4.9H161.028C161.072 4.9 161.106 4.91733 161.132 4.952C161.167 4.978 161.184 5.01267 161.184 5.056V6.317ZM168.737 4.9C168.78 4.9 168.815 4.91733 168.841 4.952C168.876 4.978 168.893 5.01267 168.893 5.056V6.33C168.893 6.37333 168.876 6.41233 168.841 6.447C168.815 6.473 168.78 6.486 168.737 6.486H166.41C166.367 6.486 166.345 6.50767 166.345 6.551V13.844C166.345 13.8873 166.328 13.9263 166.293 13.961C166.267 13.987 166.232 14 166.189 14H164.668C164.625 14 164.586 13.987 164.551 13.961C164.525 13.9263 164.512 13.8873 164.512 13.844V6.551C164.512 6.50767 164.49 6.486 164.447 6.486H162.185C162.142 6.486 162.103 6.473 162.068 6.447C162.042 6.41233 162.029 6.37333 162.029 6.33V5.056C162.029 5.01267 162.042 4.978 162.068 4.952C162.103 4.91733 162.142 4.9 162.185 4.9H168.737ZM45.098 21.576C45.098 21.6627 45.0547 21.706 44.968 21.706H40.197C40.1623 21.706 40.145 21.7233 40.145 21.758V24.969C40.145 25.0037 40.1623 25.021 40.197 25.021H43.538C43.6247 25.021 43.668 25.0643 43.668 25.151V25.697C43.668 25.7837 43.6247 25.827 43.538 25.827H40.197C40.1623 25.827 40.145 25.8443 40.145 25.879V29.87C40.145 29.9567 40.1017 30 40.015 30H39.352C39.2653 30 39.222 29.9567 39.222 29.87V21.03C39.222 20.9433 39.2653 20.9 39.352 20.9H44.968C45.0547 20.9 45.098 20.9433 45.098 21.03V21.576ZM49.6007 30.104C48.994 30.104 48.4567 29.9827 47.9887 29.74C47.5207 29.4973 47.1567 29.1593 46.8967 28.726C46.6367 28.284 46.5067 27.7727 46.5067 27.192V21.03C46.5067 20.9433 46.55 20.9 46.6367 20.9H47.2997C47.3863 20.9 47.4297 20.9433 47.4297 21.03V27.218C47.4297 27.8333 47.629 28.336 48.0277 28.726C48.4263 29.1073 48.9507 29.298 49.6007 29.298C50.2507 29.298 50.775 29.1073 51.1737 28.726C51.5723 28.336 51.7717 27.8333 51.7717 27.218V21.03C51.7717 20.9433 51.815 20.9 51.9017 20.9H52.5647C52.6513 20.9 52.6947 20.9433 52.6947 21.03V27.192C52.6947 27.7727 52.5647 28.284 52.3047 28.726C52.0533 29.1593 51.6937 29.4973 51.2257 29.74C50.7577 29.9827 50.216 30.104 49.6007 30.104ZM60.4614 21.03C60.4614 20.9433 60.5047 20.9 60.5914 20.9H61.2544C61.341 20.9 61.3844 20.9433 61.3844 21.03V29.87C61.3844 29.9567 61.341 30 61.2544 30H60.6044C60.5437 30 60.4917 29.9697 60.4484 29.909L56.0154 22.694C56.0067 22.668 55.9937 22.6593 55.9764 22.668C55.959 22.668 55.9504 22.681 55.9504 22.707L55.9634 29.87C55.9634 29.9567 55.92 30 55.8334 30H55.1704C55.0837 30 55.0404 29.9567 55.0404 29.87V21.03C55.0404 20.9433 55.0837 20.9 55.1704 20.9H55.8204C55.881 20.9 55.933 20.9303 55.9764 20.991L60.4094 28.206C60.418 28.232 60.431 28.245 60.4484 28.245C60.4657 28.2363 60.4744 28.219 60.4744 28.193L60.4614 21.03ZM63.7778 30C63.6911 30 63.6478 29.9567 63.6478 29.87V21.03C63.6478 20.9433 63.6911 20.9 63.7778 20.9H66.8458C67.7038 20.9 68.3841 21.1253 68.8868 21.576C69.3981 22.0267 69.6538 22.6377 69.6538 23.409V27.491C69.6538 28.2623 69.3981 28.8733 68.8868 29.324C68.3841 29.7747 67.7038 30 66.8458 30H63.7778ZM64.5708 29.142C64.5708 29.1767 64.5881 29.194 64.6228 29.194H66.8848C67.4481 29.194 67.8944 29.0293 68.2238 28.7C68.5618 28.3707 68.7308 27.9287 68.7308 27.374V23.539C68.7308 22.9757 68.5661 22.5293 68.2368 22.2C67.9074 21.8707 67.4568 21.706 66.8848 21.706H64.6228C64.5881 21.706 64.5708 21.7233 64.5708 21.758V29.142ZM76.7742 30C76.6962 30 76.6442 29.9653 76.6182 29.896L76.0982 28.258C76.0896 28.232 76.0722 28.219 76.0462 28.219H72.1592C72.1332 28.219 72.1159 28.232 72.1072 28.258L71.5872 29.896C71.5612 29.9653 71.5092 30 71.4312 30H70.7292C70.6339 30 70.5992 29.9523 70.6252 29.857L73.4982 21.004C73.5242 20.9347 73.5762 20.9 73.6542 20.9H74.5382C74.6162 20.9 74.6682 20.9347 74.6942 21.004L77.5802 29.857L77.5932 29.909C77.5932 29.9697 77.5542 30 77.4762 30H76.7742ZM72.3672 27.4C72.3586 27.4173 72.3586 27.4347 72.3672 27.452C72.3846 27.4607 72.4019 27.465 72.4192 27.465H75.7732C75.7906 27.465 75.8036 27.4607 75.8122 27.452C75.8296 27.4347 75.8339 27.4173 75.8252 27.4L74.1352 22.096C74.1266 22.0787 74.1136 22.07 74.0962 22.07C74.0789 22.07 74.0659 22.0787 74.0572 22.096L72.3672 27.4ZM81.8924 30.117C81.2857 30.117 80.7527 30 80.2934 29.766C79.834 29.5233 79.4744 29.1853 79.2144 28.752C78.963 28.31 78.8374 27.803 78.8374 27.231V23.656C78.8374 23.0927 78.963 22.5943 79.2144 22.161C79.4744 21.7277 79.834 21.394 80.2934 21.16C80.7527 20.9173 81.2857 20.796 81.8924 20.796C82.499 20.796 83.032 20.913 83.4914 21.147C83.9507 21.381 84.306 21.7103 84.5574 22.135C84.8174 22.5597 84.9474 23.0493 84.9474 23.604C84.9474 23.6473 84.9344 23.682 84.9084 23.708C84.8824 23.734 84.852 23.747 84.8174 23.747L84.1544 23.786C84.0677 23.786 84.0244 23.747 84.0244 23.669V23.63C84.0244 23.0147 83.8294 22.525 83.4394 22.161C83.0494 21.7883 82.5337 21.602 81.8924 21.602C81.251 21.602 80.7354 21.7883 80.3454 22.161C79.9554 22.5337 79.7604 23.0233 79.7604 23.63V27.27C79.7604 27.8767 79.9554 28.3663 80.3454 28.739C80.7354 29.1117 81.251 29.298 81.8924 29.298C82.5337 29.298 83.0494 29.116 83.4394 28.752C83.8294 28.3793 84.0244 27.8853 84.0244 27.27V27.244C84.0244 27.166 84.0677 27.127 84.1544 27.127L84.8174 27.166C84.904 27.166 84.9474 27.205 84.9474 27.283C84.9474 27.8463 84.8174 28.3447 84.5574 28.778C84.306 29.2027 83.9507 29.532 83.4914 29.766C83.032 30 82.499 30.117 81.8924 30.117ZM87.1499 30C87.0632 30 87.0199 29.9567 87.0199 29.87V21.03C87.0199 20.9433 87.0632 20.9 87.1499 20.9H87.8129C87.8995 20.9 87.9429 20.9433 87.9429 21.03V29.87C87.9429 29.9567 87.8995 30 87.8129 30H87.1499ZM93.1921 30.104C92.5768 30.104 92.0351 29.9783 91.5671 29.727C91.0991 29.4757 90.7351 29.1247 90.4751 28.674C90.2238 28.2147 90.0981 27.686 90.0981 27.088V23.812C90.0981 23.214 90.2238 22.6897 90.4751 22.239C90.7351 21.7797 91.0991 21.4243 91.5671 21.173C92.0351 20.9217 92.5768 20.796 93.1921 20.796C93.8074 20.796 94.3491 20.9217 94.8171 21.173C95.2938 21.4243 95.6578 21.7797 95.9091 22.239C96.1691 22.6897 96.2991 23.214 96.2991 23.812V27.088C96.2991 27.686 96.1691 28.2147 95.9091 28.674C95.6578 29.1247 95.2938 29.4757 94.8171 29.727C94.3491 29.9783 93.8074 30.104 93.1921 30.104ZM93.1921 29.311C93.8508 29.311 94.3794 29.1117 94.7781 28.713C95.1768 28.3143 95.3761 27.7857 95.3761 27.127V23.799C95.3761 23.1403 95.1768 22.6117 94.7781 22.213C94.3794 21.8057 93.8508 21.602 93.1921 21.602C92.5421 21.602 92.0178 21.8057 91.6191 22.213C91.2204 22.6117 91.0211 23.1403 91.0211 23.799V27.127C91.0211 27.7857 91.2204 28.3143 91.6191 28.713C92.0178 29.1117 92.5421 29.311 93.1921 29.311ZM92.7631 20.042C92.7111 20.042 92.6764 20.029 92.6591 20.003C92.6418 19.9683 92.6461 19.9293 92.6721 19.886L93.4521 18.469C93.4781 18.4083 93.5301 18.378 93.6081 18.378H94.1931C94.2451 18.378 94.2754 18.3953 94.2841 18.43C94.3014 18.456 94.2971 18.4907 94.2711 18.534L93.3871 19.951C93.3438 20.0117 93.2918 20.042 93.2311 20.042H92.7631ZM104.532 20.887C105.294 20.887 105.905 21.121 106.365 21.589C106.833 22.057 107.067 22.6723 107.067 23.435C107.067 24.189 106.828 24.7957 106.352 25.255C105.884 25.7143 105.264 25.944 104.493 25.944H101.958C101.923 25.944 101.906 25.9613 101.906 25.996V29.87C101.906 29.9567 101.862 30 101.776 30H101.113C101.026 30 100.983 29.9567 100.983 29.87V21.017C100.983 20.9303 101.026 20.887 101.113 20.887H104.532ZM104.428 25.177C104.939 25.177 105.355 25.021 105.676 24.709C105.996 24.3883 106.157 23.968 106.157 23.448C106.157 22.9193 105.996 22.4947 105.676 22.174C105.355 21.8533 104.939 21.693 104.428 21.693H101.958C101.923 21.693 101.906 21.7103 101.906 21.745V25.125C101.906 25.1597 101.923 25.177 101.958 25.177H104.428ZM114.071 30C113.993 30 113.941 29.9697 113.915 29.909L112.004 25.879C111.995 25.853 111.978 25.84 111.952 25.84H109.742C109.707 25.84 109.69 25.8573 109.69 25.892V29.87C109.69 29.9567 109.647 30 109.56 30H108.897C108.81 30 108.767 29.9567 108.767 29.87V21.03C108.767 20.9433 108.81 20.9 108.897 20.9H112.264C113.009 20.9 113.612 21.134 114.071 21.602C114.53 22.0613 114.76 22.6637 114.76 23.409C114.76 24.0157 114.595 24.5313 114.266 24.956C113.937 25.3807 113.49 25.6537 112.927 25.775C112.892 25.7923 112.884 25.814 112.901 25.84L114.851 29.844C114.86 29.8613 114.864 29.883 114.864 29.909C114.864 29.9697 114.829 30 114.76 30H114.071ZM109.742 21.706C109.707 21.706 109.69 21.7233 109.69 21.758V25.047C109.69 25.0817 109.707 25.099 109.742 25.099H112.16C112.663 25.099 113.07 24.943 113.382 24.631C113.694 24.319 113.85 23.9117 113.85 23.409C113.85 22.9063 113.694 22.499 113.382 22.187C113.07 21.8663 112.663 21.706 112.16 21.706H109.742ZM116.857 30C116.77 30 116.727 29.9567 116.727 29.87V21.03C116.727 20.9433 116.77 20.9 116.857 20.9H117.52C117.607 20.9 117.65 20.9433 117.65 21.03V29.87C117.65 29.9567 117.607 30 117.52 30H116.857ZM122.327 30C122.249 30 122.197 29.9653 122.171 29.896L119.337 21.043L119.324 20.991C119.324 20.9303 119.363 20.9 119.441 20.9H120.143C120.221 20.9 120.273 20.9347 120.299 21.004L122.665 28.622C122.674 28.6393 122.687 28.648 122.704 28.648C122.721 28.648 122.734 28.6393 122.743 28.622L125.109 21.004C125.135 20.9347 125.187 20.9 125.265 20.9H125.954C126.049 20.9 126.084 20.9477 126.058 21.043L123.198 29.896C123.172 29.9653 123.12 30 123.042 30H122.327ZM131.935 30C131.857 30 131.805 29.9653 131.779 29.896L131.259 28.258C131.251 28.232 131.233 28.219 131.207 28.219H127.32C127.294 28.219 127.277 28.232 127.268 28.258L126.748 29.896C126.722 29.9653 126.67 30 126.592 30H125.89C125.795 30 125.76 29.9523 125.786 29.857L128.659 21.004C128.685 20.9347 128.737 20.9 128.815 20.9H129.699C129.777 20.9 129.829 20.9347 129.855 21.004L132.741 29.857L132.754 29.909C132.754 29.9697 132.715 30 132.637 30H131.935ZM127.528 27.4C127.52 27.4173 127.52 27.4347 127.528 27.452C127.546 27.4607 127.563 27.465 127.58 27.465H130.934C130.952 27.465 130.965 27.4607 130.973 27.452C130.991 27.4347 130.995 27.4173 130.986 27.4L129.296 22.096C129.288 22.0787 129.275 22.07 129.257 22.07C129.24 22.07 129.227 22.0787 129.218 22.096L127.528 27.4ZM134.567 30C134.48 30 134.437 29.9567 134.437 29.87V21.03C134.437 20.9433 134.48 20.9 134.567 20.9H137.635C138.493 20.9 139.173 21.1253 139.676 21.576C140.187 22.0267 140.443 22.6377 140.443 23.409V27.491C140.443 28.2623 140.187 28.8733 139.676 29.324C139.173 29.7747 138.493 30 137.635 30H134.567ZM135.36 29.142C135.36 29.1767 135.377 29.194 135.412 29.194H137.674C138.237 29.194 138.684 29.0293 139.013 28.7C139.351 28.3707 139.52 27.9287 139.52 27.374V23.539C139.52 22.9757 139.355 22.5293 139.026 22.2C138.697 21.8707 138.246 21.706 137.674 21.706H135.412C135.377 21.706 135.36 21.7233 135.36 21.758V29.142ZM147.563 30C147.485 30 147.433 29.9653 147.407 29.896L146.887 28.258C146.879 28.232 146.861 28.219 146.835 28.219H142.948C142.922 28.219 142.905 28.232 142.896 28.258L142.376 29.896C142.35 29.9653 142.298 30 142.22 30H141.518C141.423 30 141.388 29.9523 141.414 29.857L144.287 21.004C144.313 20.9347 144.365 20.9 144.443 20.9H145.327C145.405 20.9 145.457 20.9347 145.483 21.004L148.369 29.857L148.382 29.909C148.382 29.9697 148.343 30 148.265 30H147.563ZM143.156 27.4C143.148 27.4173 143.148 27.4347 143.156 27.452C143.174 27.4607 143.191 27.465 143.208 27.465H146.562C146.58 27.465 146.593 27.4607 146.601 27.452C146.619 27.4347 146.623 27.4173 146.614 27.4L144.924 22.096C144.916 22.0787 144.903 22.07 144.885 22.07C144.868 22.07 144.855 22.0787 144.846 22.096L143.156 27.4Z" fill="white"/>
</svg>
